<svg width="24" height="24" viewBox="0 0 24 24" fill="none" xmlns="http://www.w3.org/2000/svg">
<path d="M19.0005 21C10.127 21 3 13.873 3 4.99951M19.0005 21C20.6576 21 22 19.6576 22 18.0005V16.4369C22 15.8177 21.5481 15.2905 20.9356 15.1991L17.3528 14.6368C16.6905 14.5416 16.0283 14.746 15.5452 15.1903C15.5452 15.1903 14.3466 16.2962 12.0823 14.0319C9.81796 11.7676 10.9239 10.569 10.9239 10.569C11.3682 10.0859 11.5726 9.42366 11.4774 8.76136L10.9151 5.17861C10.8237 4.56614 10.2965 4.11421 9.67731 4.11421H8.11366C6.45653 4.11421 5.11413 5.45661 5.11413 7.11373C5.11413 14.8925 11.2217 21 19.0005 21Z" stroke="#000000" stroke-width="1.5" stroke-linecap="round" stroke-linejoin="round"/>
</svg>
